{
	"asset":{
		"version":"2.0",
		"generator":""
	},
	"scenes":[{
		"nodes":[0,
		1]
	}],
	"nodes":[{
		"name":"서페이스 분할",
		"translation":[8.28095531463623,
		12.412196159362793,
		-18.449222564697267],
		"rotation":[0.025662772357463838,
		0.9487618803977966,
		-0.03752684220671654,
		-0.3127043545246124],
		"scale":[1.0,
		1.0,
		1.0],
		"children":[2]
	},
	{
		"name":"OctaneCamera",
		"camera":0,
		"translation":[-8.297102928161621,
		23.491806030273439,
		-17.178176879882814],
		"rotation":[0.06777273118495941,
		0.9534326195716858,
		0.07681436836719513,
		-0.28367698192596438],
		"scale":[1.0,
		1.0,
		1.0]
	},
	{
		"name":"Flutter",
		"mesh":0,
		"translation":[15.26303768157959,
		8.714670181274414,
		1.569854497909546],
		"rotation":[0.0,
		0.0,
		0.0,
		-1.0],
		"scale":[1.0,
		1.0,
		1.0]
	}],
	"meshes":[{
		"name":"Flutter",
		"primitives":[{
			"attributes":{
				"POSITION":1,
				"NORMAL":2
			},
			"indices":0,
			"material":0
		}]
	}],
	"cameras":[{
		"type":"perspective",
		"perspective":{
			"znear":0.009999999776482582,
			"zfar":10000000000.0,
			"aspectRatio":1.0,
			"yfov":0.950021505355835
		}
	}],
	"accessors":[{
		"bufferView":0,
		"type":"SCALAR",
		"componentType":5123,
		"count":14880,
		"byteOffset":0,
		"min":[0],
		"max":[14879]
	},
	{
		"bufferView":1,
		"type":"VEC3",
		"componentType":5126,
		"count":14880,
		"byteOffset":0,
		"min":[-2.2978060245513918,
		-1.9491114616394044,
		-1.5868028402328492],
		"max":[2.2978060245513918,
		2.1273133754730226,
		1.5742610692977906]
	},
	{
		"bufferView":1,
		"type":"VEC3",
		"componentType":5126,
		"count":14880,
		"byteOffset":12,
		"min":[-0.9995707273483276,
		-0.9997879266738892,
		-0.999626100063324],
		"max":[0.9995707273483276,
		0.9995164275169373,
		0.9998171329498291]
	},
	{
		"bufferView":2,
		"type":"SCALAR",
		"componentType":5126,
		"count":7,
		"byteOffset":0,
		"min":[0.0],
		"max":[8.0]
	},
	{
		"bufferView":2,
		"type":"VEC4",
		"componentType":5126,
		"count":7,
		"byteOffset":28,
		"min":[-0.28104573488235476,
		-0.45507439970970156,
		0.0,
		-1.0],
		"max":[0.858984649181366,
		0.3814692497253418,
		0.3211612105369568,
		-0.3734971582889557]
	}],
	"bufferViews":[{
		"buffer":0,
		"byteOffset":0,
		"byteLength":29760,
		"target":34963
	},
	{
		"buffer":0,
		"byteOffset":29760,
		"byteLength":357120,
		"target":34962,
		"byteStride":24
	},
	{
		"buffer":1,
		"byteOffset":0,
		"byteLength":140
	}],
	"buffers":[{
		"uri":"data:application/octet-stream;base64,",
		"byteLength":386880
	},
	{
		"uri":"data:application/octet-stream;base64,",
		"byteLength":140
	}],
	"materials":[{
		"emissiveFactor":[0.0,
		0.0,
		0.0],
		"pbrMetallicRoughness":{
			"baseColorFactor":[1.0,
			1.0,
			1.0,
			1.0],
			"metallicFactor":1.0,
			"roughnessFactor":1.0
		},
		"name":"",
		"alphaMode":"OPAQUE",
		"doubleSided":false
	}],
	"animations":[{
		"samplers":[{
			"input":3,
			"interpolation":"LINEAR",
			"output":4
		}],
		"channels":[{
			"sampler":0,
			"target":{
				"node":2,
				"path":"rotation"
			}
		}]
	}]
}