{

	"buffers":[{
		"uri":"data:application/octet-stream;base64,",
		"byteLength":245388
	}],
	"asset":{
		"version":"2.0",
		"generator":""
	},
	"meshes":[{
		"name":"Group24342",
		"primitives":[{
			"attributes":{
				"POSITION":1,
				"NORMAL":2
			},
			"indices":0,
			"material":0
		}]
	}],
	"scenes":[{
		"nodes":[0,
		1]
	}],
	"nodes":[{
		"name":"Group24342",
		"mesh":0
	},
	{
		"camera":0,
		"name":"OctaneCamera",
		"rotation":[0.025916093960404397,
		-0.9537408947944641,
		-0.08616849035024643,
		-0.2868477702140808],
		"translation":[0.01967449113726616,
		0.012769455090165139,
		-0.0377705879509449],
		"scale":[1.0,
		1.0,
		1.0]
	}],
	"cameras":[{
		"type":"perspective",
		"perspective":{
			"znear":0.009999999776482582,
			"zfar":10000000000.0,
			"aspectRatio":1.0,
			"yfov":0.950021505355835
		}
	}],
	"accessors":[{
		"bufferView":0,
		"componentType":5123,
		"type":"SCALAR",
		"count":9438,
		"byteOffset":0,
		"min":[0],
		"max":[9437]
	},
	{
		"bufferView":1,
		"componentType":5126,
		"type":"VEC3",
		"count":9438,
		"byteOffset":0,
		"min":[-0.009971345774829388,
		-0.00996021181344986,
		-0.0099453404545784],
		"max":[0.010064841248095036,
		0.020406177267432214,
		0.0099453404545784]
	},
	{
		"bufferView":1,
		"componentType":5126,
		"type":"VEC3",
		"count":9438,
		"byteOffset":12,
		"min":[-0.9999570250511169,
		-0.9998740553855896,
		-0.999152660369873],
		"max":[0.999902069568634,
		0.9943494200706482,
		0.999152660369873]
	}],
	"bufferViews":[{
		"buffer":0,
		"target":34963,
		"byteOffset":0,
		"byteLength":18876
	},
	{
		"buffer":0,
		"target":34962,
		"byteOffset":18876,
		"byteLength":226512,
		"byteStride":24
	}],
	"materials":[{
		"pbrMetallicRoughness":{
			"baseColorFactor":[1.0,
			1.0,
			1.0,
			1.0],
			"metallicFactor":1.0,
			"roughnessFactor":1.0
		},
		"emissiveFactor":[0.0,
		0.0,
		0.0],
		"alphaMode":"OPAQUE",
		"doubleSided":false,
		"name":""
	}]
}