{
	"buffers":[{
		"uri":"data:application/octet-stream;base64,",
		"byteLength":2964864
	}],
	"asset":{
		"version":"2.0",
		"generator":""
	},
	"meshes":[{
		"name":"Group25952",
		"primitives":[{
			"attributes":{
				"POSITION":1,
				"NORMAL":2
			},
			"indices":0,
			"material":0
		}]
	}],
	"scenes":[{
		"nodes":[0,
		1]
	}],
	"nodes":[{
		"name":" ",
		"rotation":[0.10063876211643219,
		-0.38226842880249026,
		-0.2141701877117157,
		0.893237829208374],
		"translation":[0.0006407799082808197,
		0.00852468516677618,
		-0.13427281379699708],
		"scale":[1.0,
		1.0,
		1.0],
		"children":[2]
	},
	{
		"camera":0,
		"name":"OctaneCamera",
		"rotation":[-0.1606825888156891,
		-0.024000559002161027,
		-0.003908428829163313,
		0.986706554889679],
		"translation":[-0.011209968477487564,
		0.06640692800283432,
		0.015662578865885736],
		"scale":[1.0,
		1.0,
		1.0]
	},
	{
		"name":"Group25952",
		"mesh":0
	}],
	"cameras":[{
		"type":"perspective",
		"perspective":{
			"znear":0.009999999776482582,
			"zfar":10000000000.0,
			"aspectRatio":1.0,
			"yfov":0.950021505355835
		}
	}],
	"accessors":[{
		"bufferView":0,
		"componentType":5125,
		"type":"SCALAR",
		"count":105888,
		"byteOffset":0,
		"min":[0],
		"max":[105887]
	},
	{
		"bufferView":1,
		"componentType":5126,
		"type":"VEC3",
		"count":105888,
		"byteOffset":0,
		"min":[-0.009543816559016705,
		-0.019111130386590959,
		-0.012716906145215035],
		"max":[0.00954923965036869,
		0.025513827800750734,
		0.012681389227509499]
	},
	{
		"bufferView":1,
		"componentType":5126,
		"type":"VEC3",
		"count":105888,
		"byteOffset":12,
		"min":[-0.9999872446060181,
		-0.9999462962150574,
		-0.9999298453330994],
		"max":[0.999946653842926,
		0.9994391798973084,
		0.9999447464942932]
	}],
	"bufferViews":[{
		"buffer":0,
		"target":34963,
		"byteOffset":0,
		"byteLength":423552
	},
	{
		"buffer":0,
		"target":34962,
		"byteOffset":423552,
		"byteLength":2541312,
		"byteStride":24
	}],
	"materials":[{
		"pbrMetallicRoughness":{
			"baseColorFactor":[1.0,
			1.0,
			1.0,
			1.0],
			"metallicFactor":1.0,
			"roughnessFactor":1.0
		},
		"emissiveFactor":[0.0,
		0.0,
		0.0],
		"alphaMode":"OPAQUE",
		"doubleSided":false,
		"name":""
	}]
}